<?xml version="1.0" standalone="no"?>
<svg xmlns="http://www.w3.org/2000/svg" viewBox="0 0 152 69" width="152" height="69"><g fill="#8c8b8c" color="#8c8b8c" transform="translate(53.876 0) scale(0.6111112) "><svg width="72.0" height="72.0" x="0.0" y="0.0" viewBox="0 0 72 72"><g><path d="M60.6,29.4c-1-2.3-1.7-6.8,3.3-12l-9.3-9.3c-5.3,5.1-9.8,4.3-12,3.3c-3.1-1.3-5.4-4.3-5.8-7.4l-8.5,2.4   c4.3,5.5,3.3,12.7-2.8,18.8c-3,3-6.5,4.9-9.9,5.3C12.4,31,9.4,30.1,6.8,28L4,37.3c3.5,3.5,7.3,7.6,9.3,11.7   c1.5,3.2,1.9,6.1,0.9,8.7c1-0.4,2.1-0.5,3.1-0.5c6.3,0,12.6,6.1,17.3,10.8l9.3-2.7c-2.1-2.6-3-5.7-2.5-8.9c0.4-3.4,2.3-6.9,5.3-9.9   c6.1-6.1,13.3-7.1,18.8-2.8l2.4-8.5C64.9,34.7,61.9,32.5,60.6,29.4z M46.5,15.5c0.6,0,1.3-0.1,1.9-0.2c0.6-0.1,1.1,0.3,1.2,0.8   c0.1,0.6-0.3,1.1-0.8,1.2c-0.7,0.1-1.5,0.2-2.2,0.2c0,0,0,0,0,0c-0.6,0-1-0.4-1-1C45.5,16,45.9,15.5,46.5,15.5z M37.5,53.8   c0.6,0.1,0.9,0.6,0.8,1.2c-0.1,0.6-0.2,1.2-0.2,1.8c0,0.5-0.5,1-1,1c0,0-0.1,0-0.1,0c-0.6,0-1-0.5-1-1.1c0-0.7,0.1-1.3,0.3-2   C36.4,54.1,36.9,53.7,37.5,53.8z M34.6,9.8c0.4-0.2,1-0.1,1.3,0.3c0.2,0.3,0.4,0.5,0.6,0.8c0.4,0.4,0.3,1.1-0.1,1.5   c-0.1,0.1-0.3,0.2-0.5,0.2c-0.1,0.1-0.3,0.2-0.5,0.2c0,0-0.1,0-0.1,0c-0.5,0-1-0.4-1-0.9c0-0.3-0.1-0.6-0.2-1   C33.9,10.5,34.2,10,34.6,9.8z M11.5,34.8c-0.1,0.6-0.7,0.9-1.2,0.8c0,0,0,0-0.1,0l-0.1,0.2c0.1,0.1,0.2,0.2,0.3,0.3   c0.4,0.4,0.4,1.1,0,1.5c-0.2,0.2-0.5,0.3-0.7,0.3c-0.3,0-0.6-0.1-0.8-0.3c-0.2-0.3-0.5-0.5-0.7-0.7c-0.3-0.3-0.4-0.7-0.2-1L8.5,34   c0.1-0.3,0.3-0.5,0.5-0.6c0.2-0.1,0.5-0.2,0.8-0.1c0.3,0.1,0.6,0.2,0.9,0.3C11.3,33.7,11.6,34.3,11.5,34.8z M14.6,42.7   c-0.2,0.1-0.4,0.2-0.6,0.2c-0.3,0-0.6-0.1-0.8-0.4c-0.4-0.5-0.8-1-1.1-1.4c-0.4-0.4-0.3-1.1,0.1-1.5c0.4-0.4,1.1-0.3,1.5,0.1   c0.4,0.5,0.8,1,1.2,1.5C15.1,41.7,15,42.3,14.6,42.7z M15.3,36c-0.5,0-1-0.4-1-1c0-0.6,0.4-1.1,1-1.1c0.6,0,1.2-0.1,1.8-0.2   c0.6-0.1,1.1,0.3,1.2,0.8c0.1,0.6-0.3,1.1-0.8,1.2C16.7,35.9,16,35.9,15.3,36C15.3,36,15.3,36,15.3,36z M17.4,48.5   c-0.4,0-0.8-0.2-0.9-0.6c-0.3-0.5-0.5-1.1-0.8-1.6c-0.3-0.5-0.1-1.1,0.4-1.4c0.5-0.3,1.1-0.1,1.4,0.4c0.3,0.6,0.6,1.2,0.9,1.7   c0.2,0.5,0,1.1-0.5,1.4C17.7,48.4,17.6,48.5,17.4,48.5z M21.2,53.3c-0.1,0.5-0.5,0.8-1,0.8c-0.1,0-0.1,0-0.2,0   c-0.3-0.1-0.6-0.1-1-0.2c-0.5-0.1-0.8-0.4-0.9-0.9c0-0.3-0.1-0.6-0.2-1c-0.1-0.6,0.2-1.1,0.8-1.2c0.6-0.1,1.1,0.2,1.2,0.8   c0,0.1,0,0.2,0.1,0.3c0.1,0,0.2,0,0.3,0.1C20.9,52.2,21.3,52.7,21.2,53.3z M21.7,34.3c-0.4,0-0.8-0.2-0.9-0.6   c-0.2-0.5,0-1.1,0.5-1.4c0.5-0.2,1.1-0.5,1.6-0.8c0.5-0.3,1.1-0.1,1.4,0.4c0.3,0.5,0.1,1.1-0.4,1.4c-0.6,0.3-1.2,0.6-1.8,0.9   C22,34.3,21.9,34.3,21.7,34.3z M27.1,56c-0.2,0.3-0.5,0.5-0.9,0.5c-0.2,0-0.3,0-0.5-0.1c-0.5-0.3-1.1-0.6-1.6-0.8   c-0.5-0.2-0.7-0.9-0.5-1.4c0.2-0.5,0.9-0.7,1.4-0.5c0.6,0.3,1.2,0.6,1.7,0.9C27.3,54.8,27.4,55.5,27.1,56z M27.4,30.7   c-0.3,0-0.6-0.1-0.8-0.4c-0.4-0.4-0.3-1.1,0.1-1.5c0.5-0.4,0.9-0.8,1.3-1.3c0.4-0.4,1.1-0.4,1.5,0c0.4,0.4,0.4,1.1,0,1.5   c-0.5,0.5-1,0.9-1.5,1.4C27.9,30.6,27.6,30.7,27.4,30.7z M32.4,59.9c-0.2,0.3-0.5,0.4-0.8,0.4c-0.2,0-0.5-0.1-0.7-0.2   c-0.5-0.4-1-0.8-1.4-1.1c-0.5-0.3-0.6-1-0.2-1.5c0.3-0.5,1-0.6,1.5-0.2c0.5,0.4,1,0.8,1.5,1.2C32.7,58.8,32.8,59.4,32.4,59.9z    M33.7,23.4c-0.3,0.6-0.7,1.2-1,1.7c-0.2,0.3-0.5,0.5-0.9,0.5c-0.2,0-0.4-0.1-0.6-0.2c-0.5-0.3-0.6-1-0.3-1.4   c0.3-0.5,0.7-1,0.9-1.6c0.3-0.5,0.9-0.7,1.4-0.4C33.8,22.3,34,22.9,33.7,23.4z M33.6,18.2c0.2-0.6,0.3-1.2,0.4-1.8   c0.1-0.6,0.6-0.9,1.2-0.9c0.6,0.1,0.9,0.6,0.8,1.2c-0.1,0.7-0.3,1.3-0.4,2c-0.1,0.5-0.5,0.8-1,0.8c-0.1,0-0.2,0-0.3,0   C33.8,19.3,33.5,18.7,33.6,18.2z M38.6,63c-0.1,0.2-0.4,0.4-0.6,0.5l-1.8,0.5c-0.1,0-0.2,0-0.3,0c-0.3,0-0.5-0.1-0.7-0.3l-0.7-0.7   c-0.4-0.4-0.4-1.1,0-1.5c0.4-0.4,1.1-0.4,1.5,0l0.3,0.3l0.2-0.1c0,0,0,0,0-0.1c-0.1-0.6,0.2-1.1,0.8-1.3c0.6-0.1,1.1,0.2,1.3,0.8   c0.1,0.3,0.2,0.6,0.3,0.9C38.8,62.5,38.7,62.8,38.6,63z M40.5,49c-0.3,0.5-0.6,1.1-0.8,1.6c-0.2,0.4-0.6,0.6-0.9,0.6   c-0.1,0-0.3,0-0.4-0.1c-0.5-0.2-0.8-0.9-0.5-1.4c0.3-0.6,0.6-1.2,0.9-1.8c0.3-0.5,0.9-0.7,1.4-0.4C40.6,47.9,40.8,48.5,40.5,49z    M41.1,16.7c-0.7-0.3-1.4-0.6-2-0.9c-0.5-0.3-0.7-0.9-0.4-1.4c0.3-0.5,0.9-0.7,1.4-0.4c0.6,0.3,1.1,0.6,1.7,0.8   c0.5,0.2,0.8,0.8,0.6,1.3c-0.2,0.4-0.6,0.7-1,0.7C41.4,16.7,41.3,16.7,41.1,16.7z M44.5,43.9c-0.4,0.4-0.9,0.9-1.3,1.3   c-0.2,0.2-0.5,0.4-0.8,0.4c-0.2,0-0.5-0.1-0.7-0.3c-0.4-0.4-0.5-1-0.1-1.5c0.4-0.5,0.9-1,1.4-1.5c0.4-0.4,1.1-0.4,1.5,0   C44.9,42.9,44.9,43.5,44.5,43.9z M49.6,40.1c-0.5,0.3-1.1,0.6-1.6,0.9c-0.2,0.1-0.4,0.2-0.6,0.2c-0.3,0-0.7-0.2-0.9-0.5   c-0.3-0.5-0.2-1.1,0.3-1.4c0.6-0.4,1.1-0.7,1.7-1c0.5-0.3,1.1-0.1,1.4,0.4C50.3,39.2,50.1,39.8,49.6,40.1z M50.8,27.4   c-0.2,0.2-0.5,0.3-0.7,0.3c-0.3,0-0.5-0.1-0.7-0.3c-0.4-0.4-0.4-1.1,0-1.5c0.6-0.6,0.6-1.6,0-2.2c-0.6-0.6-1.6-0.6-2.2,0   c-0.4,0.4-1.1,0.4-1.5,0c-0.4-0.4-0.4-1.1,0-1.5c1.4-1.4,3.7-1.4,5.1,0C52.2,23.6,52.2,25.9,50.8,27.4z M52.9,13.6   c0.3-0.2,0.6-0.3,0.8-0.5c0.4-0.3,0.9-0.2,1.3,0.1l0.7,0.7c0.4,0.4,0.4,1.1,0,1.5c-0.2,0.2-0.5,0.3-0.7,0.3c-0.3,0-0.5-0.1-0.7-0.3   l-0.2-0.2c-0.1,0-0.2,0.1-0.2,0.1c-0.5,0.3-1.1,0.1-1.4-0.4C52.2,14.5,52.4,13.9,52.9,13.6z M56.8,23.6c-0.1,0.6-0.2,1.3-0.2,1.9   c0,0.6-0.5,1-1,1c0,0,0,0,0,0c-0.6,0-1-0.5-1-1.1c0-0.7,0.1-1.5,0.2-2.2c0.1-0.6,0.6-0.9,1.2-0.8C56.5,22.5,56.9,23,56.8,23.6z    M55.6,38c-0.6,0.1-1.2,0.2-1.8,0.4c-0.1,0-0.2,0-0.3,0c-0.5,0-0.9-0.3-1-0.8c-0.2-0.6,0.2-1.1,0.7-1.3c0.7-0.2,1.3-0.3,2-0.4   c0.6-0.1,1.1,0.3,1.2,0.9C56.5,37.3,56.2,37.9,55.6,38z M57.7,33.3c-0.2,0.1-0.3,0.1-0.5,0.1c-0.4,0-0.7-0.2-0.9-0.5   c-0.4-0.7-0.7-1.3-0.9-2c-0.2-0.5,0.1-1.1,0.6-1.3c0.5-0.2,1.1,0.1,1.3,0.6c0.2,0.6,0.5,1.2,0.8,1.7C58.4,32.4,58.2,33,57.7,33.3z    M58.9,18.3c-0.2,0.3-0.3,0.6-0.5,0.8c-0.2,0.3-0.5,0.5-0.9,0.5c-0.2,0-0.3,0-0.5-0.1c-0.5-0.3-0.7-0.9-0.4-1.4   c0-0.1,0.1-0.2,0.1-0.2l-0.2-0.2c-0.4-0.4-0.4-1.1,0-1.5c0.4-0.4,1.1-0.4,1.5,0l0.7,0.7C59.1,17.3,59.2,17.8,58.9,18.3z M62.2,37.4   c-0.2,0.4-0.5,0.6-1,0.6c-0.1,0-0.1,0-0.2,0c-0.3-0.1-0.6-0.1-1-0.2c-0.6-0.1-1-0.6-0.9-1.2c0-0.2,0.1-0.4,0.2-0.5   c0-0.2,0.1-0.4,0.2-0.5c0.4-0.4,1-0.5,1.5-0.1c0.2,0.2,0.5,0.4,0.8,0.6C62.3,36.4,62.4,36.9,62.2,37.4z"></path></g></svg></g><path fill="#a00000" fill-rule="nonzero" d="M15.55 15.41Q15.70 15.89 15.70 16.44L15.70 16.44Q14.26 16.37 12.96 16.37L12.96 16.37Q11.69 16.37 10.25 16.44L10.25 16.44Q10.25 15.74 10.42 15.41L10.42 15.41Q11.09 15.34 11.36 15.19Q11.64 15.05 11.64 14.71L11.64 14.71Q11.64 14.42 11.28 13.54L11.28 13.54L10.22 11.09Q6.41 11.09 3.89 11.18L3.89 11.18L3.24 12.84Q2.86 13.85 2.86 14.42L2.86 14.42Q2.86 14.90 3.16 15.13Q3.46 15.36 4.10 15.41L4.10 15.41Q4.27 15.82 4.27 16.44L4.27 16.44Q3.46 16.37 1.99 16.37L1.99 16.37Q1.37 16.37 0 16.44L0 16.44Q0 15.84 0.17 15.43L0.17 15.43Q0.79 15.31 1.15 14.81Q1.51 14.30 2.09 12.84L2.09 12.84L7.06 0.10Q7.46 0 7.99 0L7.99 0L13.70 13.10Q14.30 14.45 14.65 14.88Q15 15.31 15.55 15.41L15.55 15.41ZM4.32 10.01L9.77 10.01L7.94 5.74Q7.22 4.08 6.89 3.12L6.89 3.12Q6.62 3.94 5.98 5.71L5.98 5.71L4.32 10.01ZM28.85 13.01Q29.40 13.94 29.78 14.40Q30.17 14.86 30.68 15.07Q31.20 15.29 32.09 15.34L32.09 15.34Q32.09 16.03 31.99 16.37L31.99 16.37Q29.54 16.37 28.22 16.58L28.22 16.58Q27.31 15.12 26.62 13.75L26.62 13.75L26.33 13.22Q25.58 11.88 24.97 10.98Q24.36 10.08 23.35 9.00L23.35 9.00L22.61 9.02Q22.25 9.02 21.67 8.98L21.67 8.98L21.67 13.32Q21.67 14.52 22.00 14.94Q22.32 15.36 23.26 15.41L23.26 15.41Q23.38 15.77 23.38 16.44L23.38 16.44Q22.34 16.37 20.52 16.37L20.52 16.37Q18.72 16.37 17.64 16.44L17.64 16.44Q17.64 15.79 17.76 15.41L17.76 15.41Q18.74 15.36 19.08 14.94Q19.42 14.52 19.42 13.32L19.42 13.32L19.42 3.19Q19.42 1.99 19.07 1.55Q18.72 1.10 17.76 1.10L17.76 1.10Q17.64 0.72 17.64 0.10L17.64 0.10Q18.60 0.14 20.52 0.14L20.52 0.14Q21.84 0.14 22.51 0.12L22.51 0.12L24.53 0.10Q27.12 0.10 28.44 1.21Q29.76 2.33 29.76 4.13L29.76 4.13Q29.76 5.71 28.69 6.86Q27.62 8.02 25.73 8.50L25.73 8.50Q26.57 9.38 27.14 10.24Q27.72 11.09 28.85 13.01L28.85 13.01ZM21.67 7.87Q22.25 7.94 22.73 7.94L22.73 7.94Q24.82 7.94 26.11 7.04Q27.41 6.14 27.41 4.37L27.41 4.37Q27.41 2.86 26.46 2.00Q25.51 1.15 23.45 1.15L23.45 1.15Q22.58 1.15 21.67 1.34L21.67 1.34L21.67 7.87ZM43.97 0.14Q44.93 0.14 46.03 0.10L46.03 0.10Q46.03 0.58 45.94 1.03L45.94 1.03Q45.26 1.22 44.69 1.82Q44.11 2.42 43.51 3.62L43.51 3.62L40.27 10.13L40.27 12.46Q40.27 13.78 40.39 14.33Q40.51 14.88 40.87 15.08Q41.23 15.29 42.12 15.41L42.12 15.41Q42.26 15.84 42.26 16.44L42.26 16.44L41.14 16.42Q39.79 16.37 39.22 16.37L39.22 16.37Q37.30 16.37 35.95 16.42L35.95 16.42Q35.95 15.84 36.10 15.41L36.10 15.41Q37.01 15.34 37.38 15.14Q37.75 14.95 37.88 14.45Q38.02 13.94 38.02 12.77L38.02 12.77L38.02 10.15L34.03 2.50Q33.65 1.73 33.28 1.42Q32.90 1.10 32.26 1.08L32.26 1.08Q32.11 0.65 32.11 0.10L32.11 0.10Q33.46 0.14 34.61 0.14L34.61 0.14Q37.08 0.14 37.82 0.10L37.82 0.10Q37.82 0.60 37.70 1.03L37.70 1.03Q36.60 1.13 36.60 1.75L36.60 1.75Q36.60 2.16 37.03 3.00L37.03 3.00Q38.47 5.76 39.84 8.83L39.84 8.83Q41.16 5.93 42.43 3.36L42.43 3.36Q42.94 2.35 42.94 1.90L42.94 1.90Q42.94 1.54 42.66 1.36Q42.38 1.18 41.78 1.08L41.78 1.08Q41.62 0.48 41.62 0.10L41.62 0.10Q42.19 0.14 43.97 0.14L43.97 0.14ZM61.58 13.32Q61.58 14.52 61.93 14.94Q62.28 15.36 63.24 15.41L63.24 15.41Q63.36 15.74 63.36 16.44L63.36 16.44Q61.92 16.37 60.46 16.37L60.46 16.37Q58.78 16.37 57.55 16.44L57.55 16.44Q57.55 15.74 57.67 15.41L57.67 15.41Q58.63 15.36 58.98 14.94Q59.33 14.52 59.33 13.32L59.33 13.32L59.33 8.57Q53.83 8.57 52.01 8.71L52.01 8.71L52.01 13.32Q52.01 14.52 52.36 14.94Q52.70 15.36 53.66 15.41L53.66 15.41Q53.78 15.74 53.78 16.44L53.78 16.44Q52.34 16.37 50.88 16.37L50.88 16.37Q49.20 16.37 47.98 16.44L47.98 16.44Q47.98 15.74 48.10 15.41L48.10 15.41Q49.06 15.36 49.40 14.94Q49.75 14.52 49.75 13.32L49.75 13.32L49.75 3.19Q49.75 1.99 49.40 1.57Q49.06 1.15 48.10 1.10L48.10 1.10Q47.98 0.77 47.98 0.07L47.98 0.07Q49.30 0.14 50.88 0.14L50.88 0.14Q52.34 0.14 53.78 0.07L53.78 0.07Q53.78 0.77 53.66 1.10L53.66 1.10Q52.70 1.15 52.36 1.57Q52.01 1.99 52.01 3.19L52.01 3.19L52.01 7.54L59.33 7.54L59.33 3.19Q59.33 1.99 58.98 1.57Q58.63 1.15 57.67 1.10L57.67 1.10Q57.55 0.77 57.55 0.07L57.55 0.07Q58.87 0.14 60.46 0.14L60.46 0.14Q61.92 0.14 63.36 0.07L63.36 0.07Q63.36 0.77 63.24 1.10L63.24 1.10Q62.28 1.15 61.93 1.57Q61.58 1.99 61.58 3.19L61.58 3.19L61.58 13.32ZM80.86 15.41Q81 15.89 81 16.44L81 16.44Q79.56 16.37 78.26 16.37L78.26 16.37Q76.99 16.37 75.55 16.44L75.55 16.44Q75.55 15.74 75.72 15.41L75.72 15.41Q76.39 15.34 76.67 15.19Q76.94 15.05 76.94 14.71L76.94 14.71Q76.94 14.42 76.58 13.54L76.58 13.54L75.53 11.09Q71.71 11.09 69.19 11.18L69.19 11.18L68.54 12.84Q68.16 13.85 68.16 14.42L68.16 14.42Q68.16 14.90 68.46 15.13Q68.76 15.36 69.41 15.41L69.41 15.41Q69.58 15.82 69.58 16.44L69.58 16.44Q68.76 16.37 67.30 16.37L67.30 16.37Q66.67 16.37 65.30 16.44L65.30 16.44Q65.30 15.84 65.47 15.43L65.47 15.43Q66.10 15.31 66.46 14.81Q66.82 14.30 67.39 12.84L67.39 12.84L72.36 0.10Q72.77 0 73.30 0L73.30 0L79.01 13.10Q79.61 14.45 79.96 14.88Q80.30 15.31 80.86 15.41L80.86 15.41ZM69.62 10.01L75.07 10.01L73.25 5.74Q72.53 4.08 72.19 3.12L72.19 3.12Q71.93 3.94 71.28 5.71L71.28 5.71L69.62 10.01ZM93.62 11.09Q94.90 11.09 95.70 10.46Q96.50 9.84 96.50 8.40L96.50 8.40Q96.50 7.03 95.65 6.23Q94.80 5.42 93.05 5.42L93.05 5.42Q92.59 5.42 91.99 5.57L91.99 5.57L91.99 13.30Q91.99 14.42 92.42 14.86Q92.86 15.29 93.91 15.34L93.91 15.34Q94.03 15.70 94.03 16.42L94.03 16.42Q92.69 16.37 91.25 16.37L91.25 16.37Q89.42 16.37 88.22 16.42L88.22 16.42Q88.22 15.67 88.34 15.34L88.34 15.34Q89.18 15.29 89.48 14.94Q89.78 14.59 89.78 13.56L89.78 13.56L89.78 7.15Q89.78 6.46 89.66 6.10Q89.54 5.74 89.24 5.59Q88.94 5.45 88.34 5.40L88.34 5.40Q88.22 5.04 88.22 4.32L88.22 4.32Q90.48 4.37 91.18 4.37L91.18 4.37L94.06 4.32Q96.53 4.32 97.68 5.35Q98.83 6.38 98.83 7.99L98.83 7.99Q98.83 9.14 98.28 10.10Q97.73 11.06 96.64 11.64Q95.54 12.22 94.01 12.22L94.01 12.22Q93.07 12.22 92.54 12.05L92.54 12.05Q92.50 11.71 92.50 11.54L92.50 11.54Q92.50 11.23 92.57 11.02L92.57 11.02Q92.93 11.09 93.62 11.09L93.62 11.09ZM113.74 15.34Q113.86 15.70 113.86 16.42L113.86 16.42Q112.90 16.37 111.38 16.37L111.38 16.37Q109.80 16.37 108.84 16.42L108.84 16.42Q108.84 15.67 108.98 15.34L108.98 15.34Q109.54 15.26 109.76 15.13Q109.99 15.00 109.99 14.74L109.99 14.74Q109.99 14.52 109.75 13.99L109.75 13.99L109.27 12.96Q105.82 12.96 103.82 13.08L103.82 13.08L103.56 13.70Q103.32 14.26 103.32 14.57L103.32 14.57Q103.32 15.24 104.30 15.34L104.30 15.34Q104.45 15.77 104.45 16.42L104.45 16.42Q103.54 16.37 102.46 16.37L102.46 16.37Q101.52 16.37 100.75 16.42L100.75 16.42Q100.75 15.84 100.90 15.34L100.90 15.34Q101.42 15.24 101.71 14.89Q102 14.54 102.48 13.49L102.48 13.49L106.61 4.34Q107.06 4.25 107.57 4.25L107.57 4.25L111.98 13.42Q112.51 14.52 112.88 14.90Q113.26 15.29 113.74 15.34L113.74 15.34ZM104.30 11.98L108.79 11.98L107.35 8.95Q106.73 7.68 106.49 6.94L106.49 6.94Q106.30 7.54 106.02 8.12Q105.74 8.71 105.67 8.86L105.67 8.86L104.30 11.98ZM126.60 13.56Q127.25 14.52 127.93 14.92Q128.62 15.31 129.62 15.36L129.62 15.36Q129.62 16.06 129.53 16.37L129.53 16.37Q127.49 16.37 126.07 16.54L126.07 16.54Q125.90 16.25 125.42 15.53L125.42 15.53L124.34 13.78Q123.46 12.29 121.99 11.35L121.99 11.35L121.22 11.38L120.53 11.35L120.53 13.54Q120.53 14.33 120.65 14.71Q120.77 15.10 121.04 15.24Q121.32 15.38 121.90 15.41L121.90 15.41Q121.99 15.70 121.99 16.42L121.99 16.42Q121.10 16.37 119.38 16.37L119.38 16.37Q118.10 16.37 116.76 16.42L116.76 16.42Q116.76 15.74 116.88 15.41L116.88 15.41Q117.48 15.36 117.78 15.22Q118.08 15.07 118.20 14.71Q118.32 14.35 118.32 13.63L118.32 13.63L118.32 7.13Q118.32 6.10 118.03 5.76Q117.74 5.42 116.88 5.38L116.88 5.38Q116.76 5.02 116.76 4.32L116.76 4.32Q117.67 4.37 119.40 4.37L119.40 4.37L121.13 4.34Q122.38 4.30 123.02 4.30L123.02 4.30Q125.33 4.30 126.50 5.18Q127.68 6.07 127.68 7.46L127.68 7.46Q127.68 8.86 126.79 9.76Q125.90 10.66 124.32 10.97L124.32 10.97Q124.92 11.33 125.32 11.80Q125.71 12.26 126.60 13.56L126.60 13.56ZM121.44 10.18Q123.17 10.18 124.27 9.56Q125.38 8.95 125.38 7.78L125.38 7.78Q125.38 5.33 122.02 5.33L122.02 5.33Q121.25 5.33 120.53 5.47L120.53 5.47L120.53 10.10Q121.03 10.18 121.44 10.18L121.44 10.18ZM132.55 16.42Q132.55 15.67 132.67 15.34L132.67 15.34Q133.27 15.29 133.57 15.14Q133.87 15.00 133.99 14.64Q134.11 14.28 134.11 13.56L134.11 13.56L134.11 7.15Q134.11 6.46 133.99 6.10Q133.87 5.74 133.57 5.59Q133.27 5.45 132.67 5.40L132.67 5.40Q132.55 5.04 132.55 4.32L132.55 4.32Q134.09 4.37 135.24 4.37L135.24 4.37Q136.20 4.37 137.88 4.32L137.88 4.32Q137.88 5.06 137.78 5.40L137.78 5.40Q136.92 5.45 136.62 5.78Q136.32 6.12 136.32 7.15L136.32 7.15L136.32 13.56Q136.32 14.59 136.62 14.94Q136.92 15.29 137.78 15.34L137.78 15.34Q137.88 15.70 137.88 16.42L137.88 16.42Q136.25 16.37 135.24 16.37L135.24 16.37Q134.04 16.37 132.55 16.42L132.55 16.42ZM146.52 16.54Q145.20 16.54 144.13 16.27Q143.06 16.01 141.82 15.48L141.82 15.48Q142.08 13.87 142.01 12.70L142.01 12.70Q142.54 12.53 143.30 12.53L143.30 12.53Q143.35 14.02 144.25 14.69Q145.15 15.36 146.78 15.36L146.78 15.36Q148.18 15.36 148.98 14.93Q149.78 14.50 149.78 13.78L149.78 13.78Q149.78 13.27 149.39 12.90Q148.99 12.53 148.43 12.28Q147.86 12.02 146.78 11.64L146.78 11.64Q145.30 11.14 144.40 10.69Q143.50 10.25 142.84 9.47Q142.18 8.69 142.18 7.51L142.18 7.51Q142.18 5.90 143.39 5.06Q144.60 4.22 146.71 4.22L146.71 4.22Q147.84 4.22 148.96 4.44Q150.07 4.66 150.70 4.99L150.70 4.99Q150.67 5.26 150.67 5.81L150.67 5.81Q150.67 6.89 150.82 7.51L150.82 7.51Q150.31 7.78 149.50 7.78L149.50 7.78Q149.16 6.41 148.40 5.87Q147.65 5.33 146.54 5.33L146.54 5.33Q145.49 5.33 144.83 5.69Q144.17 6.05 144.17 6.74L144.17 6.74Q144.17 7.54 144.94 8.02Q145.70 8.50 147.34 9.07L147.34 9.07Q148.73 9.55 149.62 9.98Q150.50 10.42 151.13 11.15Q151.75 11.88 151.75 12.98L151.75 12.98Q151.75 14.57 150.46 15.55Q149.16 16.54 146.52 16.54L146.52 16.54Z" transform="translate(0, 52)"></path></svg>